<?xml version="1.0" encoding="UTF-8" standalone="no"?>
<!-- Created with Inkscape (http://www.inkscape.org/) -->

<svg
   xmlns:dc="http://purl.org/dc/elements/1.1/"
   xmlns:cc="http://creativecommons.org/ns#"
   xmlns:rdf="http://www.w3.org/1999/02/22-rdf-syntax-ns#"
   xmlns:svg="http://www.w3.org/2000/svg"
   xmlns="http://www.w3.org/2000/svg"
   xmlns:sodipodi="http://sodipodi.sourceforge.net/DTD/sodipodi-0.dtd"
   xmlns:inkscape="http://www.inkscape.org/namespaces/inkscape"
   width="1280"
   height="720"
   viewBox="0 0 1280 720.00001"
   id="svg2"
   version="1.1"
   inkscape:version="0.91 r13725"
   sodipodi:docname="cloud.svg"
   inkscape:export-filename="C:\Users\Takumi\Source\coderdojo\csgame\csgame\Game\Content\Graphics\cloud.png"
   inkscape:export-xdpi="90"
   inkscape:export-ydpi="90">
  <defs
     id="defs4" />
  <sodipodi:namedview
     id="base"
     pagecolor="#000000"
     bordercolor="#666666"
     borderopacity="1.0"
     inkscape:pageopacity="0"
     inkscape:pageshadow="2"
     inkscape:zoom="0.49497475"
     inkscape:cx="-130.61155"
     inkscape:cy="288.07814"
     inkscape:document-units="px"
     inkscape:current-layer="layer1"
     showgrid="true"
     units="px"
     inkscape:window-width="1920"
     inkscape:window-height="986"
     inkscape:window-x="1909"
     inkscape:window-y="-11"
     inkscape:window-maximized="1">
    <inkscape:grid
       type="xygrid"
       id="grid4136" />
  </sodipodi:namedview>
  <metadata
     id="metadata7">
    <rdf:RDF>
      <cc:Work
         rdf:about="">
        <dc:format>image/svg+xml</dc:format>
        <dc:type
           rdf:resource="http://purl.org/dc/dcmitype/StillImage" />
        <dc:title></dc:title>
      </cc:Work>
    </rdf:RDF>
  </metadata>
  <g
     inkscape:label="Layer 1"
     inkscape:groupmode="layer"
     id="layer1"
     transform="translate(0,-332.36216)">
    <path
       style="fill:#ffffff;fill-opacity:1;fill-rule:evenodd;stroke:#ffffff;stroke-width:0.37545547px;stroke-linecap:butt;stroke-linejoin:miter;stroke-opacity:1"
       d="m 61.262621,400.695 c 0.473048,-9.3277 -0.984234,-18.46201 -3.115788,-27.50947 -1.915364,-11.89271 -7.192481,-22.92692 -8.873045,-34.90608 0.150617,-10.81566 -1.710295,-20.94297 -1.661689,-31.46276 -0.04451,-7.56674 0.440814,-16.07095 10.687356,-13.92565 8.452449,-0.69071 16.953849,-0.15307 25.418089,-0.29296 47.227686,33.60525 12.01998,15.90149 66.154376,6.24877 8.75881,-2.12358 17.40661,-5.81314 26.38684,-6.24877 9.25397,0.14793 14.79174,9.53444 21.16667,15.08099 11.83602,80.38097 5.92091,1.1341 69.09895,41.05057 2.93212,3.49375 4.32283,12.01346 5.05192,14.31518 -3.66472,-9.94659 0.81116,9.13215 2.53342,11.47499 1.80041,10.55567 -3.84136,19.97869 -7.57267,29.45415 -6.39016,7.43241 -8.15449,19.18452 -18.63693,22.29926 -6.79492,1.04515 -14.08221,0.87173 -20.85065,-0.063 -8.70615,-3.41305 -17.1503,-8.04979 -26.73277,-8.14446 -8.15211,-3.25357 -16.27253,-6.63732 -24.82396,-8.88563 -9.82672,-4.9675 -21.46974,-1.7705 -31.09234,-7.20647 -6.84893,1.1519 -7.83453,-13.92926 -10.52081,-3.43035 -2.9085,6.88401 -7.26956,14.39922 -15.4285,15.48412 -5.8713,3.32531 -12.32313,3.1051 -18.809476,3.03265 -6.03773,-1.94475 -12.83567,0.24495 -18.95821,-1.57942 -3.97146,-0.27253 -8.18529,0.62102 -11.94846,-0.60529 -4.26181,-3.06123 -5.350714,-8.37697 -7.138693,-13.45353 l -0.22058,-0.48057 -0.11305,-0.24629 z"
       id="path4138"
       inkscape:connector-curvature="0"
       sodipodi:nodetypes="ccccccccccccccccccccccccccc" />
    <path
       style="fill:#ffffff;fill-opacity:1;fill-rule:evenodd;stroke:#ffffff;stroke-width:0.55635309px;stroke-linecap:butt;stroke-linejoin:miter;stroke-opacity:1"
       d="m 587.60124,362.60953 c 4.04691,11.62951 10.95954,21.77445 18.86333,31.37741 9.02778,13.19688 22.77938,23.17502 31.49079,36.62887 5.30359,13.22703 13.34431,24.31609 18.65314,37.11792 3.94064,9.15671 7.54727,19.79451 -9.28771,23.82443 -12.62821,6.31105 -25.96021,11.16266 -38.88841,16.81269 -89.73201,-10.21685 -26.59844,-11.521 -104.80089,35.24636 -12.36545,8.24883 -23.75904,18.32677 -37.32837,24.66989 -14.2884,5.81195 -27.59711,-1.99722 -40.22647,-4.60289 -59.31322,-89.9141 -9.674,2.45679 -127.1331,-5.09435 -6.29121,-2.34277 -12.78708,-11.78474 -15.08476,-14.10683 10.71862,9.70179 -5.91918,-10.56065 -9.76326,-12.28963 -8.16701,-11.64823 -4.32433,-26.73997 -3.44267,-40.65843 6.0108,-13.15981 2.70641,-28.56845 17.21188,-39.13645 9.90111,-5.66815 21.18203,-10.17581 32.05567,-13.42336 15.11795,-1.49361 30.45974,-1.33212 45.2254,-7.42141 14.18542,-1.32849 28.38878,-2.47844 42.67305,-5.2858 17.63447,-0.33212 33.88031,-11.7514 51.44102,-11.38268 9.92944,-5.83271 19.16094,11.83673 17.91384,-2.64752 0.94413,-10.23988 3.79616,-22.18645 15.77185,-28.78599 7.3157,-7.83812 17.33743,-11.74807 27.33655,-15.85973 10.26827,-1.54836 19.58829,-8.60788 29.92521,-10.35727 6.23903,-2.24051 12.25355,-6.05348 18.66078,-7.00131 8.11207,0.95681 12.50478,6.70477 17.84877,11.70975 l 0.58471,0.44057 0.29966,0.22578 z"
       id="path4138-5"
       inkscape:connector-curvature="0"
       sodipodi:nodetypes="ccccccccccccccccccccccccccc" />
    <path
       style="fill:#ffffff;fill-opacity:1;fill-rule:evenodd;stroke:#ffffff;stroke-width:0.55635309px;stroke-linecap:butt;stroke-linejoin:miter;stroke-opacity:1"
       d="m 804.7441,355.46667 c 4.04691,11.62951 10.95954,21.77445 18.86333,31.37741 9.02778,13.19688 22.77938,23.17502 31.49079,36.62887 5.30359,13.22703 13.34431,24.31609 18.65314,37.11792 3.94064,9.15671 7.54727,19.79451 -9.28771,23.82443 -12.62821,6.31105 -25.96021,11.16266 -38.88841,16.81269 -89.73201,-10.21685 -26.59844,-11.521 -104.80089,35.24636 -12.36545,8.24883 -23.75904,18.32677 -37.32837,24.66989 -14.2884,5.81195 -27.59711,-1.99722 -40.22647,-4.60289 -59.31322,-89.9141 -9.674,2.45679 -127.1331,-5.09435 -6.29121,-2.34277 -12.78708,-11.78474 -15.08476,-14.10683 10.71862,9.70179 -5.91918,-10.56065 -9.76326,-12.28963 -8.16701,-11.64823 -4.32433,-26.73997 -3.44267,-40.65843 6.0108,-13.15981 2.70641,-28.56845 17.21188,-39.13645 9.90111,-5.66815 21.18203,-10.17581 32.05567,-13.42336 15.11795,-1.49361 30.45974,-1.33212 45.2254,-7.42141 14.18542,-1.32849 28.38878,-2.47844 42.67305,-5.2858 17.63447,-0.33212 33.88031,-11.7514 51.44102,-11.38268 9.92944,-5.83271 19.16094,11.83673 17.91384,-2.64752 0.94413,-10.23988 3.79616,-22.18645 15.77185,-28.78599 7.3157,-7.83812 17.33743,-11.74807 27.33655,-15.85973 10.26827,-1.54836 19.58829,-8.60788 29.92521,-10.35727 6.23903,-2.24051 12.25355,-6.05348 18.66078,-7.00131 8.11207,0.95681 12.50478,6.70477 17.84877,11.70975 l 0.58471,0.44057 0.29966,0.22578 z"
       id="path4138-5-6"
       inkscape:connector-curvature="0"
       sodipodi:nodetypes="ccccccccccccccccccccccccccc" />
    <path
       style="fill:#ffffff;fill-opacity:1;fill-rule:evenodd;stroke:#ffffff;stroke-width:0.28146467px;stroke-linecap:butt;stroke-linejoin:miter;stroke-opacity:1"
       d="m 1096.4171,586.5744 c 3.9611,-3.04103 10.7271,-5.69386 18.4632,-8.20496 8.8363,-3.45088 22.2962,-6.06008 30.8228,-9.57816 5.1911,-3.45877 13.0612,-6.35847 18.2574,-9.70605 3.8571,-2.39441 7.3872,-5.17611 -9.0907,-6.22991 -12.3603,-1.65029 -25.4095,-2.91895 -38.0634,-4.39639 -87.8285,2.67163 -26.0342,3.01266 -102.5777,-9.21665 -12.1031,-2.157 -23.25503,-4.79231 -36.5365,-6.45098 -13.98529,-1.51978 -27.01167,0.52225 -39.37312,1.20362 -58.05496,23.51184 -9.46878,-0.64244 -124.43612,1.33213 -6.15775,0.61262 -12.51582,3.08162 -14.76476,3.68883 10.49124,-2.53695 -5.79361,2.76153 -9.55614,3.21364 -7.99376,3.04592 -4.2326,6.9923 -3.36964,10.63187 5.88329,3.44119 2.649,7.47043 16.84675,10.23388 9.69107,1.48217 20.73268,2.66089 31.37565,3.5101 14.79724,0.39057 29.81357,0.34834 44.266,1.94064 13.88449,0.34739 27.78654,0.6481 41.76779,1.3822 17.26037,0.0869 33.16158,3.0729 50.34976,2.97648 9.7188,1.52521 18.75446,-3.09521 17.53382,0.69231 0.9241,2.67765 3.71563,5.80158 15.43731,7.52731 7.1605,2.04961 16.9696,3.07203 26.7566,4.1472 10.0504,0.40488 19.1727,2.25089 29.2904,2.70835 6.1067,0.58587 11.9936,1.58293 18.2649,1.83078 7.94,-0.25019 12.2395,-1.75324 17.4701,-3.062 l 0.5723,-0.11521 0.2933,-0.059 z"
       id="path4138-5-6-8"
       inkscape:connector-curvature="0"
       sodipodi:nodetypes="ccccccccccccccccccccccccccc" />
    <path
       style="fill:#ffffff;fill-opacity:1;fill-rule:evenodd;stroke:#ffffff;stroke-width:0.28311872px;stroke-linecap:butt;stroke-linejoin:miter;stroke-opacity:1"
       d="m 1239.1139,529.68352 c 1.4914,-8.17233 4.0387,-15.30143 6.9514,-22.04965 3.3268,-9.27375 8.3945,-16.2856 11.6047,-25.73993 1.9545,-9.29495 4.9176,-17.08748 6.8739,-26.08362 1.4522,-6.43463 2.7813,-13.91005 -3.4226,-16.74199 -4.6536,-4.43491 -9.5667,-7.84426 -14.3308,-11.81466 -33.0674,7.17962 -9.8019,8.09609 -38.6205,-24.76843 -4.5568,-5.79662 -8.7554,-12.87864 -13.7559,-17.33608 -5.2655,-4.08419 -10.1699,1.40347 -14.824,3.23456 -21.8576,63.18469 -3.565,-1.72647 -46.8501,3.5799 -2.3184,1.64633 -4.7122,8.28142 -5.5589,9.91321 3.9499,-6.81769 -2.1813,7.42121 -3.5979,8.63619 -3.0096,8.18547 -1.5935,18.7908 -1.2686,28.57163 2.215,9.2477 0.9973,20.0757 6.3427,27.50208 3.6487,3.98312 7.8059,7.15076 11.813,9.43289 5.5711,1.0496 11.2247,0.93611 16.6661,5.21519 5.2275,0.93356 10.4616,1.74168 15.7255,3.71446 6.4985,0.23354 12.4853,8.25798 18.9567,7.99887 3.6591,4.09878 7.061,-8.31794 6.6014,1.86048 0.348,7.1958 1.3989,15.59091 5.8122,20.22857 2.6959,5.50803 6.389,8.25564 10.0738,11.145 3.784,1.08806 7.2185,6.04894 11.0278,7.2783 2.2992,1.57444 4.5156,4.2539 6.8767,4.91996 2.9894,-0.67235 4.6082,-4.71158 6.5775,-8.22868 l 0.2155,-0.30961 0.1104,-0.15856 z"
       id="path4138-5-6-8-3"
       inkscape:connector-curvature="0"
       sodipodi:nodetypes="ccccccccccccccccccccccccccc" />
    <path
       style="fill:#ffffff;fill-opacity:1;fill-rule:evenodd;stroke:#ffffff;stroke-width:0.28311872px;stroke-linecap:butt;stroke-linejoin:miter;stroke-opacity:1"
       d="m 219.8582,625.88535 c -8.26707,-0.81661 -15.58096,-2.77106 -22.54519,-5.12091 -9.5152,-2.55557 -16.91879,-7.03155 -26.60441,-9.45611 -9.42387,-1.18615 -17.43303,-3.50064 -26.55923,-4.71307 -6.532,-0.91995 -14.0912,-1.63193 -16.40517,4.7832 -4.0386,5.00141 -7.03382,10.1774 -10.60042,15.25087 9.86555,32.36775 8.87218,9.1054 -21.519918,40.52051 -5.403662,5.01654 -12.117757,9.78143 -16.15038,15.13042 -3.63891,5.58251 2.232235,10.02066 4.438597,14.50904 64.763501,16.60569 -1.428489,3.6945 7.40751,46.3991 1.830799,2.17567 8.639755,4.01763 10.335451,4.72775 -7.118477,-3.37786 7.57501,1.56574 8.902,2.878 8.40459,2.32863 18.85819,0.0481 28.57949,-1.07728 9.03505,-2.96546 19.92643,-2.63928 26.88973,-8.57533 3.67069,-3.96287 6.48697,-8.36569 8.43301,-12.54634 0.58949,-5.63838 0.013,-11.26366 3.83176,-17.03746 0.50199,-5.28642 0.87843,-10.56914 2.41316,-15.97702 -0.29983,-6.49578 7.20696,-13.12009 6.41835,-19.54848 3.7851,-3.98271 -8.86865,-6.35554 1.31319,-6.73167 7.14307,-0.93657 15.42382,-2.67197 19.68418,-7.4505 5.26855,-3.13825 7.70425,-7.04411 10.28189,-10.95332 0.77428,-3.86044 5.437,-7.68996 6.35002,-11.5872 1.38071,-2.4205 3.86951,-4.84904 4.33983,-7.25679 -0.91509,-2.92424 -5.07341,-4.20655 -8.74007,-5.88098 l -0.32623,-0.1894 -0.16707,-0.097 z"
       id="path4138-5-6-8-3-1"
       inkscape:connector-curvature="0"
       sodipodi:nodetypes="ccccccccccccccccccccccccccc" />
    <path
       style="fill:#ffffff;fill-opacity:1;fill-rule:evenodd;stroke:#ffffff;stroke-width:0.49267575px;stroke-linecap:butt;stroke-linejoin:miter;stroke-opacity:1"
       d="m 857.61166,670.63068 c -7.41478,9.79783 -16.1852,17.22744 -25.41345,23.81042 -11.43323,9.6528 -24.79257,14.6627 -36.11337,24.66611 -8.91036,10.91219 -18.82717,18.8729 -27.57045,29.37633 -6.35153,7.4653 -13.06915,16.45907 -3.22381,25.88052 6.06755,10.21544 13.19924,19.26622 19.73577,28.94783 65.17717,19.86785 22.72278,-2.24222 57.21851,68.37754 5.1123,11.98403 8.83,25.39828 15.52552,35.95549 7.39785,10.28624 19.58647,7.20669 29.22779,8.88493 76.40368,-66.49261 5.60098,5.54899 88.58457,37.13106 5.22136,-0.16437 13.42656,-7.05849 15.92106,-8.52267 -11.18382,5.74764 8.26088,-8.15579 11.5705,-8.54102 10.2267,-8.45441 13.6579,-24.17438 18.6347,-37.79242 1.1814,-14.58644 9.6048,-28.24815 3.965,-43.15989 -4.4688,-8.69881 -10.342,-16.74245 -16.4428,-23.44495 -9.69269,-6.42553 -20.201,-11.3402 -27.81264,-22.0498 -9.12412,-5.95931 -18.33196,-11.75364 -26.93079,-19.16158 -11.87112,-6.14519 -18.35468,-22.44694 -30.45664,-27.89656 -4.42214,-8.86571 -17.78619,5.00217 -11.13354,-8.4542 3.46015,-10.11659 6.30573,-22.49756 0.79768,-32.77378 -1.83933,-9.92222 -7.09469,-16.97742 -12.25393,-24.2183 -6.36954,-4.8755 -9.88521,-14.71449 -16.22094,-19.80519 -3.34943,-4.20684 -5.91583,-9.84508 -9.89757,-12.86974 -5.90551,-1.76438 -11.19896,2.28772 -16.84216,5.31409 l -0.57461,0.22863 -0.29428,0.11708 z"
       id="path4138-5-6-8-3-1-8"
       inkscape:connector-curvature="0"
       sodipodi:nodetypes="ccccccccccccccccccccccccccc"
       inkscape:transform-center-x="320.00219"
       inkscape:transform-center-y="4.2845662" />
    <path
       style="fill:#ffffff;fill-opacity:1;fill-rule:evenodd;stroke:#ffffff;stroke-width:0.43124032px;stroke-linecap:butt;stroke-linejoin:miter;stroke-opacity:1"
       d="m 83.602794,910.02157 c 12.3969,4.38078 20.089466,9.00527 26.114786,13.70582 9.9736,6.02418 11.12129,12.22338 21.74347,18.24803 13.45298,5.14889 21.41361,10.31899 34.27222,15.34409 9.06477,3.6283 20.49244,7.6129 41.62322,4.8011 20.41174,-1.1422 39.44902,-2.8808 59.22059,-4.2886 68.65842,-24.30853 8.57081,-9.703 145.63621,-14.51658 22.85738,-0.51001 47.35497,-0.25135 68.68018,-1.60759 21.25216,-1.68323 22.70429,-7.13941 30.7478,-10.9041 -69.97922,-40.52345 12.33825,-1.57432 110.28914,-31.68175 2.5575,-2.18262 -4.5443,-6.50149 -5.6447,-7.72986 3.5644,5.39782 -9.186,-4.51094 -8.0359,-5.93205 -8.6199,-5.36439 -33.10283,-8.89015 -53.22466,-12.7739 -23.80396,-2.44295 -42.12898,-7.75874 -70.17903,-7.42268 -17.00264,0.68383 -33.66929,2.03656 -48.21185,3.66315 -16.02721,3.15001 -29.96493,6.83991 -52.04254,8.55485 -14.93746,2.97722 -29.64378,6.01114 -46.72389,8.5769 -16.73932,4.08899 -47.57662,4.58798 -63.2755,8.86568 -17.25703,0.64216 -1.2671,8.03001 -20.20874,3.47444 -15.07673,-2.78708 -34.2817,-5.62321 -54.49174,-4.72066 -17.62627,-0.56813 -32.3012,0.66136 -47.23516,1.82621 -11.62656,1.98254 -30.02287,2.11923 -41.99173,4.05895 -8.86737,0.82243 -19.708736,1.12907 -26.938006,2.37148 -6.16096,2.20729 -2.24219,4.94056 -0.23217,7.68113 l 0.0713,0.26841 0.0366,0.13748 z"
       id="path4138-5-6-8-3-1-8-3"
       inkscape:connector-curvature="0"
       sodipodi:nodetypes="ccccccccccccccccccccccccccc"
       inkscape:transform-center-x="150.37534"
       inkscape:transform-center-y="133.61521" />
    <path
       style="fill:#ffffff;fill-opacity:1;fill-rule:evenodd;stroke:#ffffff;stroke-width:0.42963433px;stroke-linecap:butt;stroke-linejoin:miter;stroke-opacity:1"
       d="m 401.52266,641.01646 c -6.93757,4.39131 -16.74462,7.21817 -27.53887,9.49003 -12.79709,3.66662 -30.16307,4.38304 -42.66291,8.26717 -8.66852,4.78653 -19.9271,7.73246 -28.51196,12.31306 -6.2997,3.23372 -12.53995,7.27883 5.30558,14.21414 12.69508,6.78349 26.47885,13.07419 39.64583,19.62881 101.77999,21.72277 31.95452,2.35504 108.95725,48.05915 11.99624,7.63739 22.52885,15.8659 36.26231,22.94425 14.6438,7.03638 31.0619,7.23148 45.6324,9.72731 84.7534,-25.63329 10.2251,4.05312 142.2309,35.28825 7.4778,0.74086 16.6747,-1.87156 19.7138,-2.30626 -13.94,1.48395 8.7917,-3.32157 13.4234,-3.01193 11.5158,-3.17739 10.4206,-11.57572 12.3668,-18.53081 -3.9082,-8.11276 2.9989,-14.54192 -10.886,-23.92987 -9.8023,-5.66484 -21.3807,-11.18124 -32.7717,-15.97074 -16.472,-5.20586 -33.5404,-9.68217 -48.6557,-16.99364 -15.4715,-4.84968 -31.0002,-9.61881 -46.2705,-15.20898 -19.5103,-5.39442 -35.1489,-15.70828 -54.7248,-20.74372 -9.7992,-5.75238 -23.7626,0.005 -19.3338,-6.59068 1.1034,-5.20469 0.4477,-11.7963 -11.4627,-18.52498 -6.4756,-5.94093 -16.7813,-10.79605 -27.01964,-15.74149 -11.07586,-3.79265 -19.94051,-9.95409 -31.05036,-13.86381 -6.45673,-2.92947 -12.3335,-6.54846 -19.24831,-8.90617 -9.20814,-1.94787 -15.29358,-0.48761 -22.27898,0.33298 l -0.74193,0.0383 -0.37999,0.0196 z"
       id="path4138-5-6-8-3-1-8-3-2"
       inkscape:connector-curvature="0"
       sodipodi:nodetypes="ccccccccccccccccccccccccccc"
       inkscape:transform-center-x="456.449"
       inkscape:transform-center-y="-43.960779" />
    <path
       style="fill:#ffffff;fill-opacity:1;fill-rule:evenodd;stroke:#ffffff;stroke-width:0.13563333px;stroke-linecap:butt;stroke-linejoin:miter;stroke-opacity:1"
       d="m 1134.1967,652.8304 c -2.0326,1.49384 -4.9057,2.45548 -8.0682,3.22832 -3.7491,1.24731 -8.8369,1.49103 -12.499,2.81233 -2.5396,1.62828 -5.8381,2.63043 -8.3532,4.18866 -1.8456,1.10005 -3.6738,2.47611 1.5544,4.83537 3.7193,2.30761 7.7576,4.44758 11.6151,6.67733 29.8187,7.38966 9.3618,0.80114 31.9214,16.34877 3.5146,2.59809 6.6003,5.39727 10.6238,7.80518 4.2903,2.39364 9.1003,2.46001 13.3691,3.30904 24.8303,-8.71994 2.9956,1.37879 41.6696,12.00437 2.1908,0.25202 4.8852,-0.63667 5.7756,-0.78455 -4.084,0.50481 2.5757,-1.12993 3.9327,-1.0246 3.3738,-1.08088 3.0529,-3.93783 3.6231,-6.30381 -1.145,-2.7598 0.8786,-4.94688 -3.1893,-8.14047 -2.8718,-1.92707 -6.2639,-3.80364 -9.6012,-5.43293 -4.8258,-1.77093 -9.8264,-3.29368 -14.2547,-5.7809 -4.5327,-1.64977 -9.0822,-3.27213 -13.556,-5.17379 -5.716,-1.83508 -10.2976,-5.34365 -16.0328,-7.05661 -2.8709,-1.95684 -6.9618,0.002 -5.6643,-2.24202 0.3233,-1.77053 0.1312,-4.01286 -3.3582,-6.30183 -1.8972,-2.02098 -4.9165,-3.6726 -7.916,-5.35494 -3.2449,-1.29019 -5.842,-3.38619 -9.0969,-4.71619 -1.8916,-0.99655 -3.6134,-2.22766 -5.6392,-3.02971 -2.6977,-0.66262 -4.4806,-0.16587 -6.5271,0.11328 l -0.2174,0.013 -0.1113,0.007 z"
       id="path4138-5-6-8-3-1-8-3-2-3"
       inkscape:connector-curvature="0"
       sodipodi:nodetypes="ccccccccccccccccccccccccccc"
       inkscape:transform-center-x="133.7267"
       inkscape:transform-center-y="-14.954585" />
  </g>
</svg>
